 v 0.4999945 -0.4999948 -0.4999948
 v 0.4999945 0.4999945 -0.4999948
 v -0.4999948 0.4999945 -0.4999948
 v -0.4999948 -0.4999948 -0.4999948
 v 0.4999945 -0.4999948 0.4999945
 v 0.4999945 0.4999945 0.4999945
 v 0.4999945 0.4999945 -0.4999948
 v 0.4999945 -0.4999948 -0.4999948
 v -0.4999948 -0.4999948 0.4999945
 v -0.4999948 0.4999945 0.4999945
 v 0.4999945 0.4999945 0.4999945
 v 0.4999945 -0.4999948 0.4999945
 v -0.4999948 -0.4999948 -0.4999948
 v -0.4999948 0.4999945 -0.4999948
 v -0.4999948 0.4999945 0.4999945
 v -0.4999948 -0.4999948 0.4999945
 v 0.4999945 -0.4999948 0.4999945
 v 0.4999945 -0.4999948 -0.4999948
 v -0.4999948 -0.4999948 -0.4999948
 v -0.4999948 -0.4999948 0.4999945
 v 0.4999945 0.4999945 -0.4999948
 v 0.4999945 0.4999945 0.4999945
 v -0.4999948 0.4999945 0.4999945
 v -0.4999948 0.4999945 -0.4999948

 vn 0 0 -1
 vn 0 0 -1
 vn 0 0 -1
 vn 0 0 -1
 vn 1 0 0
 vn 1 0 0
 vn 1 0 0
 vn 1 0 0
 vn 0 0 1
 vn 0 0 1
 vn 0 0 1
 vn 0 0 1
 vn -1 0 0
 vn -1 0 0
 vn -1 0 0
 vn -1 0 0
 vn 0 -1 0
 vn 0 -1 0
 vn 0 -1 0
 vn 0 -1 0
 vn 0 1 0
 vn 0 1 0
 vn 0 1 0
 vn 0 1 0

 vt 0.83573 0.00195
 vt 0.64228 0.16023
 vt 0.79734 0.36647
 vt 0.99804 0.19482
 vt 0.20779 0.42876
 vt 0.43483 0.29762
 vt 0.30429 0.07767
 vt 0.08117 0.20345
 vt 0.35273 0.63433
 vt 0.58082 0.51984
 vt 0.43483 0.29762
 vt 0.20779 0.42876
 vt 0.44151 0.86175
 vt 0.67328 0.77312
 vt 0.58082 0.51984
 vt 0.35273 0.63433
 vt 0.20779 0.42876
 vt 0.00195 0.59471
 vt 0.15845 0.7912
 vt 0.35273 0.63433
 vt 0.64228 0.16023
 vt 0.43483 0.29762
 vt 0.58082 0.51984
 vt 0.79734 0.36647

 f 2/2/2 1/1/1 3/3/3
 f 3/3/3 1/1/1 4/4/4
 f 6/6/6 5/5/5 7/7/7
 f 7/7/7 5/5/5 8/8/8
 f 10/10/10 9/9/9 11/11/11
 f 11/11/11 9/9/9 12/12/12
 f 14/14/14 13/13/13 15/15/15
 f 15/15/15 13/13/13 16/16/16
 f 18/18/18 17/17/17 19/19/19
 f 19/19/19 17/17/17 20/20/20
 f 22/22/22 21/21/21 23/23/23
 f 23/23/23 21/21/21 24/24/24
