mtllib ./SampleScene_1.mtl
g Group17141
v 0.2910742 -0.9563895 -0.1586127
v 0.3366106 -0.7915171 -0.5537325
v -0.00338744 -0.9739633 -0.279801
v -0.03688395 -0.8294377 -0.5725588
v -0.3625706 -0.8503954 -0.423251
v 0.5416889 -0.8567056 -0.08938008
v 0.5837997 -0.6962954 -0.4325979
v 0.7553531 -0.431473 -0.5370815
v 0.3912534 -0.452908 -0.8231085
v 0.7017167 -0.1426227 -0.7147978
v 0.9463121 -0.06014523 -0.3664922
v 0.9286961 -0.373277 -0.1305803
v 0.05133225 -0.6354775 -0.7810458
v -0.04687589 -0.4328598 -0.9135953
v 0.7827676 0.1142914 -0.6170628
v 0.5672794 0.2074195 -0.8139281
v 0.4908842 -0.1285883 -0.8718112
v 0.2461917 0.212921 -0.9663308
v 0.4462327 0.5174655 -0.7445077
v 0.07192833 0.5830052 -0.8233414
v -0.1059694 0.4088944 -0.915418
v -0.2199918 0.6544467 -0.7354588
v 0.03178688 0.8619592 -0.5315428
v 0.3086049 0.725651 -0.6375425
v 0.3811221 0.8620833 -0.3631451
v 0.6405033 0.6227327 -0.4752845
v 0.7082798 0.3344378 -0.6302359
v 0.07652666 1.002281 -0.1627725
v -0.2553163 0.8955204 -0.4049932
v -0.3028626 0.9594327 -0.0585729
v -0.5501151 0.8227634 -0.210066
v -0.5006676 0.6513027 -0.5968584
v -0.032967 0.9908857 0.2110873
v -0.7361518 0.6227335 -0.3144172
v -0.7708367 0.3597558 -0.542332
v -0.7091877 0.7139504 0.05260442
v -0.4282564 0.9070442 0.1446587
v -0.2167108 0.8730456 0.4576368
v -0.5710361 0.7621664 0.3381696
v 0.1146895 0.847281 0.5368187
v 0.00506591 0.7319938 0.6962355
v 0.4350298 0.661366 0.6461399
v 0.2053328 0.9811345 0.07400121
v 0.5190845 0.8638235 -0.1245554
v -0.5975043 0.2309178 -0.790823
v -0.8086975 0.5035244 0.341355
v -0.5582912 0.5551516 0.6412215
v -0.3446631 0.7329467 0.6003468
v -0.1948032 0.512949 0.8517111
v -0.4059117 0.2341493 0.9007002
v -0.08750933 0.1006001 1.008875
v -0.3394071 -0.1803816 0.9314291
v -0.05974672 -0.2359084 0.9827735
v -0.2877661 -0.472528 0.84112
v 0.01107871 -0.4866831 0.8892407
v 0.3519989 -0.144755 0.9454894
v -0.7049934 0.2623364 0.6817471
v -0.943274 0.2216525 0.3127158
v -0.8609129 -0.1411569 0.5212551
v -0.6310876 -0.09511167 0.78811
v -0.5579931 -0.4477829 0.7244623
v -0.7866352 -0.4753812 0.4190803
v -0.5309686 -0.7214547 0.473055
v -0.2556847 -0.700753 0.6754248
v -0.1801911 -0.9025084 0.4259752
v -0.9475775 -0.3033461 0.1691133
v -0.9839684 -0.04457414 0.2186759
v -0.9862151 -0.1653011 -0.1552167
v -0.918219 -0.3820078 -0.1718418
v -0.9933801 0.1575106 -0.1880928
v -0.8794225 0.4933087 0.02640715
v -0.8643252 0.4492376 -0.2571841
v -0.8576198 -0.1798032 -0.5088949
v -0.8308276 0.1094121 -0.5578305
v -0.6606412 -0.140653 -0.7537734
v -0.918219 -0.3820078 -0.1718418
v -0.7526637 -0.4363144 -0.5154791
v -0.4752427 -0.5093284 -0.7400105
v -0.8057539 -0.601067 0.1371941
v -0.393065 -0.1413646 -0.9202293
v -0.3318079 0.2093323 -0.9291546
v -0.3682435 0.4507155 -0.8192027
v -0.6227431 -0.6685506 -0.429483
v -0.1956386 -0.6878687 -0.7071894
v -0.7842623 -0.6007649 -0.2069783
v -0.06395976 0.05063802 -1.011819
v -0.1034442 -0.2305171 -0.977327
v 0.2386829 -0.208405 -0.9571624
v -0.3129981 -0.468847 -0.8335814
v 0.7638787 0.4260939 0.5066285
v 0.9482803 0.213784 0.2850288
v 0.8343243 0.1329446 0.5464146
v 0.638899 0.2824413 0.7275436
v 0.8601868 -0.1847154 0.5090681
v 1.008454 -0.08771719 0.1059577
v 0.9267818 -0.3629163 0.1764462
v 0.9784372 0.2221992 -0.1501756
v 0.8477213 0.2920339 -0.4616975
v 0.7871991 0.5917161 -0.2427606
v 0.9099938 0.433946 0.1107575
v 0.7132477 0.7104347 0.08718924
v 0.6875231 0.653821 0.342954
v 0.4505266 0.872726 0.2362946
v 0.2642193 0.9007802 0.369011
v 0.9267818 -0.3629163 0.1764462
v 0.797986 -0.6089485 0.09279058
v 0.7681969 -0.622323 -0.2094278
v 0.1002575 0.4773481 0.8871019
v 0.4405805 0.2677412 0.8789962
v 0.2043156 0.179243 0.9675122
v 0.7028627 -0.03809765 0.7229134
v 0.5827223 -0.4098709 0.721321
v 0.3790839 -0.4109067 0.8399319
v 0.7646421 -0.5186616 0.4096721
v 0.5553973 -0.6755284 0.5021515
v 0.2626678 -0.6373987 0.7392542
v 0.2087061 -0.8668014 0.4844539
v 0.0122274 -0.7623279 0.6585669
v 0.04021482 -1.00236 0.1251677
v 0.2855099 -0.94203 0.2263295
v 0.2910742 -0.9563895 -0.1586127
v -0.00338744 -0.9739633 -0.279801
v -0.2027461 -0.9805313 -0.1146521
v -0.3625706 -0.8503954 -0.423251
v -0.3047146 -0.9397195 0.2169406
v 0.5416889 -0.8567056 -0.08938008
v 0.555034 -0.7987857 0.2816768
v 0.797986 -0.6089485 0.09279058
v -0.4392733 -0.9085532 0.00624582
v -0.6039876 -0.7767192 0.2136774
v -0.5977233 -0.8061893 -0.1204095
v -0.7842623 -0.6007649 -0.2069783
v -0.6227431 -0.6685506 -0.429483

vn 0.2770112 -0.9442315 -0.1780216
vn 0.3436037 -0.7598832 -0.5518277
vn 0.02136223 -0.9559614 -0.292714
vn -0.0180921 -0.8400615 -0.5421894
vn -0.3597931 -0.8286892 -0.4287462
vn 0.5362574 -0.8396403 -0.0862094
vn 0.5735155 -0.703431 -0.4198391
vn 0.7318714 -0.413595 -0.5415749
vn 0.4105125 -0.4876966 -0.7704749
vn 0.7038705 -0.1655347 -0.690771
vn 0.9353614 -0.09653084 -0.3402659
vn 0.9259843 -0.3355833 -0.1730225
vn 0.105504 -0.6277308 -0.7712477
vn -0.002487541 -0.4374286 -0.8992497
vn 0.788391 0.07287518 -0.6108428
vn 0.5319276 0.1967992 -0.8236038
vn 0.4738398 -0.1045578 -0.8743818
vn 0.2418061 0.2159136 -0.9459974
vn 0.4227967 0.491938 -0.7610782
vn 0.1005374 0.5697362 -0.8156549
vn -0.07720416 0.3814003 -0.9211803
vn -0.2001503 0.6829637 -0.7024957
vn 0.02997025 0.853086 -0.5209089
vn 0.3016062 0.7232011 -0.6213
vn 0.3635428 0.8586794 -0.3612567
vn 0.6241924 0.6251352 -0.4686042
vn 0.6818311 0.376878 -0.6269524
vn 0.06135115 0.9815664 -0.1810064
vn -0.2574072 0.8805013 -0.3980691
vn -0.2571085 0.963315 -0.07693675
vn -0.534685 0.8146372 -0.2246734
vn -0.5067226 0.6428656 -0.574418
vn -0.06533358 0.9769927 0.2030189
vn -0.707109 0.6268476 -0.3271987
vn -0.7509902 0.3783006 -0.5412047
vn -0.7024101 0.7100872 0.0489509
vn -0.4118971 0.8974128 0.1580851
vn -0.2131515 0.8790098 0.4265069
vn -0.5741872 0.741344 0.347445
vn 0.1113892 0.8438227 0.5249339
vn 0.01763637 0.7058728 0.7081192
vn 0.4233383 0.6295753 0.651475
vn 0.2450601 0.9676789 0.05952442
vn 0.5076972 0.8529508 -0.12132
vn -0.5941786 0.2246871 -0.7723131
vn -0.7878698 0.4966525 0.3641393
vn -0.5554709 0.5304292 0.6403881
vn -0.3349547 0.717124 0.611178
vn -0.2151481 0.4870792 0.8464426
vn -0.4027699 0.2277982 0.8865012
vn -0.08378766 0.1014894 0.9913019
vn -0.3579742 -0.1488572 0.9217895
vn -0.01373577 -0.2094157 0.9777302
vn -0.2824746 -0.4683221 0.8371873
vn 0.0305173 -0.4759428 0.8789465
vn 0.3556021 -0.1239504 0.9263818
vn -0.7154558 0.2387312 0.6566052
vn -0.9253901 0.2157736 0.3116008
vn -0.8363125 -0.1216203 0.5345932
vn -0.6235842 -0.08368312 0.7772644
vn -0.5725353 -0.431626 0.6970669
vn -0.7710057 -0.4633259 0.4368975
vn -0.5206467 -0.7049623 0.4816173
vn -0.2685539 -0.6930187 0.669032
vn -0.1585919 -0.8926904 0.4218441
vn -0.9355427 -0.3092085 0.1707337
vn -0.9828828 -0.02655466 0.1823083
vn -0.9790881 -0.1323044 -0.1545383
vn -0.9038323 -0.3917483 -0.1721056
vn -0.9757277 0.1495994 -0.1599235
vn -0.8921289 0.4504702 0.03439017
vn -0.8728515 0.4123863 -0.260898
vn -0.8640782 -0.1598328 -0.4773073
vn -0.8379114 0.1000164 -0.5365642
vn -0.6376728 -0.1470032 -0.7561505
vn -0.9038323 -0.3917483 -0.1721056
vn -0.7392862 -0.4214527 -0.5251985
vn -0.5035973 -0.5014864 -0.703492
vn -0.7973256 -0.5892291 0.1306935
vn -0.4040807 -0.131115 -0.9052777
vn -0.3279956 0.1710069 -0.9290724
vn -0.3917324 0.4537809 -0.8003928
vn -0.5895599 -0.6723533 -0.447616
vn -0.2375859 -0.6901009 -0.6836035
vn -0.7821874 -0.591819 -0.1947642
vn -0.04542709 0.05701099 -0.9973395
vn -0.1043786 -0.2133511 -0.9713838
vn 0.2207236 -0.1876195 -0.9571207
vn -0.2849281 -0.4385542 -0.8523415
vn 0.7456373 0.4432818 0.4975201
vn 0.9447251 0.1795081 0.2743563
vn 0.8386676 0.1284561 0.5292785
vn 0.631506 0.3099435 0.7107285
vn 0.8525523 -0.1918445 0.4861587
vn 0.9933455 -0.05998523 0.09831811
vn 0.9152773 -0.3520586 0.1957605
vn 0.9660018 0.2148797 -0.1437611
vn 0.8588582 0.3045598 -0.4118323
vn 0.7881408 0.5727273 -0.2254274
vn 0.8935587 0.4393027 0.09255189
vn 0.7114571 0.6997133 0.06503908
vn 0.6695135 0.6483965 0.3623998
vn 0.4650219 0.8523974 0.2391091
vn 0.2703686 0.8862506 0.3761126
vn 0.9152773 -0.3520586 0.1957605
vn 0.7722634 -0.6279112 0.09662614
vn 0.7631852 -0.6108867 -0.2106321
vn 0.1291772 0.4760617 0.8698727
vn 0.4341794 0.2717248 0.8588678
vn 0.1826211 0.1589218 0.9702543
vn 0.6505923 -0.06208969 0.7568848
vn 0.6003368 -0.3825034 0.7023438
vn 0.3249435 -0.4049474 0.8546516
vn 0.7618541 -0.497422 0.4149093
vn 0.5142187 -0.6699371 0.5355029
vn 0.2844353 -0.6399027 0.7138776
vn 0.2065025 -0.8571954 0.4717762
vn -0.004008093 -0.7476608 0.6640686
vn 0.032959 -0.9913819 0.1267891
vn 0.3017745 -0.9330717 0.1957279
vn 0.2770112 -0.9442315 -0.1780216
vn 0.02136223 -0.9559614 -0.292714
vn -0.2092734 -0.9714733 -0.1115538
vn -0.3597931 -0.8286892 -0.4287462
vn -0.2962827 -0.9302979 0.2162459
vn 0.5362574 -0.8396403 -0.0862094
vn 0.555732 -0.79263 0.250798
vn 0.7722634 -0.6279112 0.09662614
vn -0.4267654 -0.9040229 -0.02477429
vn -0.5957866 -0.7738838 0.2148075
vn -0.5929182 -0.7943211 -0.1322951
vn -0.7821874 -0.591819 -0.1947642
vn -0.5895599 -0.6723533 -0.447616

vt 0.11135 0.85229
vt 0.15894 0.76775
vt 0.02958 0.74364
vt 0.07473 0.66522
vt 0.00195 0.55377
vt 0.21306 0.91222
vt 0.24238 0.82536
vt 0.31993 0.81198
vt 0.21903 0.71413
vt 0.33286 0.75336
vt 0.45294 0.80484
vt 0.45155 0.87079
vt 0.13348 0.65094
vt 0.15555 0.59881
vt 0.39315 0.74267
vt 0.34373 0.68758
vt 0.28314 0.70066
vt 0.28773 0.62039
vt 0.36747 0.63964
vt 0.32621 0.56196
vt 0.2817 0.53382
vt 0.31951 0.49624
vt 0.38161 0.53589
vt 0.38364 0.59801
vt 0.43646 0.59646
vt 0.43613 0.66471
vt 0.40165 0.705
vt 0.44322 0.52737
vt 0.37892 0.47378
vt 0.4283 0.44986
vt 0.38387 0.4031
vt 0.31868 0.42913
vt 0.48906 0.4902
vt 0.34587 0.35941
vt 0.28365 0.35385
vt 0.41304 0.35228
vt 0.4491 0.41533
vt 0.51299 0.4425
vt 0.46996 0.37333
vt 0.55291 0.50154
vt 0.57225 0.4707
vt 0.60855 0.55789
vt 0.489 0.54155
vt 0.48605 0.61386
vt 0.24101 0.41365
vt 0.45783 0.30512
vt 0.52593 0.35387
vt 0.52883 0.40721
vt 0.5905 0.41649
vt 0.60136 0.35491
vt 0.6609 0.40743
vt 0.66206 0.33138
vt 0.70663 0.38673
vt 0.70581 0.31162
vt 0.75007 0.37864
vt 0.73631 0.48833
vt 0.53858 0.299
vt 0.45362 0.2441
vt 0.53725 0.2153
vt 0.59976 0.27848
vt 0.65506 0.25098
vt 0.59198 0.17704
vt 0.69505 0.2058
vt 0.74404 0.28588
vt 0.79518 0.25969
vt 0.48135 0.14785
vt 0.44612 0.19193
vt 0.32064 0.1702
vt 0.45594 0.08342
vt 0.32862 0.23784
vt 0.39285 0.2994
vt 0.33899 0.31368
vt 0.20526 0.29414
vt 0.24824 0.32684
vt 0.18093 0.39157
vt 0.1931 0.20845
vt 0.12645 0.34257
vt 0.10332 0.46827
vt 0.59504 0.11865
vt 0.17775 0.48263
vt 0.23835 0.48842
vt 0.27784 0.47066
vt 0.04734 0.3982
vt 0.08635 0.58576
vt 0.08961 0.2691
vt 0.22926 0.56143
vt 0.18327 0.56803
vt 0.22895 0.64995
vt 0.12263 0.52322
vt 0.64061 0.64176
vt 0.6407 0.72363
vt 0.69335 0.6564
vt 0.6774 0.59238
vt 0.76218 0.66342
vt 0.63413 0.80991
vt 0.81064 0.71192
vt 0.53307 0.76395
vt 0.44745 0.73604
vt 0.49166 0.68812
vt 0.57913 0.70661
vt 0.54192 0.64747
vt 0.58608 0.62832
vt 0.53666 0.58216
vt 0.53904 0.53859
vt 0.51611 0.91652
vt 0.38878 0.95161
vt 0.33134 0.8829
vt 0.62524 0.47191
vt 0.67809 0.53581
vt 0.6761 0.47564
vt 0.73581 0.59858
vt 0.79959 0.53483
vt 0.77881 0.47461
vt 0.84895 0.59334
vt 0.85948 0.49548
vt 0.8062 0.42069
vt 0.85313 0.36753
vt 0.79535 0.34121
vt 0.88075 0.26489
vt 0.90445 0.35617
vt 0.97932 0.29506
vt 0.92548 0.16731
vt 0.84712 0.15858
vt 0.81446 0.0464
vt 0.78605 0.19988
vt 0.99804 0.41617
vt 0.90993 0.4683
vt 0.92978 0.59091
vt 0.76037 0.13757
vt 0.68556 0.15177
vt 0.70498 0.08544
vt 0.60034 0.04627
vt 0.7046 0.00195

usemtl Group17141Mat
usemap Group17141Mat
f 2/2/2 1/1/1 3/3/3
f 4/4/4 2/2/2 3/3/3
f 5/5/5 4/4/4 3/3/3
f 2/2/2 6/6/6 1/1/1
f 2/2/2 7/7/7 6/6/6
f 2/2/2 8/8/8 7/7/7
f 9/9/9 8/8/8 2/2/2
f 9/9/9 10/10/10 8/8/8
f 10/10/10 11/11/11 8/8/8
f 8/8/8 11/11/11 12/12/12
f 9/9/9 2/2/2 13/13/13
f 4/4/4 13/13/13 2/2/2
f 14/14/14 9/9/9 13/13/13
f 10/10/10 15/15/15 11/11/11
f 16/16/16 15/15/15 10/10/10
f 17/17/17 16/16/16 10/10/10
f 17/17/17 10/10/10 9/9/9
f 18/18/18 16/16/16 17/17/17
f 18/18/18 19/19/19 16/16/16
f 20/20/20 19/19/19 18/18/18
f 21/21/21 20/20/20 18/18/18
f 22/22/22 20/20/20 21/21/21
f 22/22/22 23/23/23 20/20/20
f 23/23/23 24/24/24 20/20/20
f 20/20/20 24/24/24 19/19/19
f 23/23/23 25/25/25 24/24/24
f 24/24/24 25/25/25 26/26/26
f 24/24/24 26/26/26 19/19/19
f 19/19/19 26/26/26 27/27/27
f 19/19/19 27/27/27 16/16/16
f 16/16/16 27/27/27 15/15/15
f 23/23/23 28/28/28 25/25/25
f 29/29/29 28/28/28 23/23/23
f 29/29/29 23/23/23 22/22/22
f 30/30/30 28/28/28 29/29/29
f 31/31/31 30/30/30 29/29/29
f 31/31/31 29/29/29 32/32/32
f 32/32/32 29/29/29 22/22/22
f 33/33/33 28/28/28 30/30/30
f 34/34/34 31/31/31 32/32/32
f 34/34/34 32/32/32 35/35/35
f 36/36/36 31/31/31 34/34/34
f 37/37/37 31/31/31 36/36/36
f 37/37/37 30/30/30 31/31/31
f 33/33/33 30/30/30 37/37/37
f 33/33/33 37/37/37 38/38/38
f 38/38/38 37/37/37 39/39/39
f 37/37/37 36/36/36 39/39/39
f 40/40/40 33/33/33 38/38/38
f 40/40/40 38/38/38 41/41/41
f 42/42/42 40/40/40 41/41/41
f 28/28/28 33/33/33 43/43/43
f 28/28/28 43/43/43 44/44/44
f 35/35/35 32/32/32 45/45/45
f 39/39/39 36/36/36 46/46/46
f 47/47/47 39/39/39 46/46/46
f 48/48/48 39/39/39 47/47/47
f 38/38/38 39/39/39 48/48/48
f 41/41/41 38/38/38 48/48/48
f 49/49/49 48/48/48 47/47/47
f 41/41/41 48/48/48 49/49/49
f 49/49/49 47/47/47 50/50/50
f 51/51/51 49/49/49 50/50/50
f 51/51/51 50/50/50 52/52/52
f 53/53/53 51/51/51 52/52/52
f 53/53/53 52/52/52 54/54/54
f 53/53/53 54/54/54 55/55/55
f 56/56/56 53/53/53 55/55/55
f 56/56/56 51/51/51 53/53/53
f 50/50/50 47/47/47 57/57/57
f 47/47/47 46/46/46 57/57/57
f 57/57/57 46/46/46 58/58/58
f 57/57/57 58/58/58 59/59/59
f 60/60/60 57/57/57 59/59/59
f 50/50/50 57/57/57 60/60/60
f 50/50/50 60/60/60 52/52/52
f 60/60/60 59/59/59 61/61/61
f 52/52/52 60/60/60 61/61/61
f 54/54/54 52/52/52 61/61/61
f 61/61/61 59/59/59 62/62/62
f 61/61/61 62/62/62 63/63/63
f 64/64/64 61/61/61 63/63/63
f 55/55/55 54/54/54 64/64/64
f 54/54/54 61/61/61 64/64/64
f 64/64/64 63/63/63 65/65/65
f 59/59/59 66/66/66 62/62/62
f 59/59/59 67/67/67 66/66/66
f 59/59/59 58/58/58 67/67/67
f 66/66/66 67/67/67 68/68/68
f 66/66/66 68/68/68 69/69/69
f 67/67/67 70/70/70 68/68/68
f 67/67/67 58/58/58 70/70/70
f 58/58/58 71/71/71 70/70/70
f 71/71/71 72/72/72 70/70/70
f 72/72/72 35/35/35 70/70/70
f 68/68/68 70/70/70 73/73/73
f 70/70/70 74/74/74 73/73/73
f 70/70/70 35/35/35 74/74/74
f 74/74/74 75/75/75 73/73/73
f 68/68/68 73/73/73 76/76/76
f 73/73/73 75/75/75 77/77/77
f 76/76/76 73/73/73 77/77/77
f 77/77/77 75/75/75 78/78/78
f 66/66/66 69/69/69 79/79/79
f 74/74/74 45/45/45 75/75/75
f 74/74/74 35/35/35 45/45/45
f 62/62/62 66/66/66 79/79/79
f 62/62/62 79/79/79 63/63/63
f 75/75/75 80/80/80 78/78/78
f 75/75/75 45/45/45 80/80/80
f 45/45/45 81/81/81 80/80/80
f 45/45/45 82/82/82 81/81/81
f 45/45/45 32/32/32 82/82/82
f 77/77/77 78/78/78 83/83/83
f 83/83/83 78/78/78 5/5/5
f 78/78/78 84/84/84 5/5/5
f 85/85/85 77/77/77 83/83/83
f 76/76/76 77/77/77 85/85/85
f 80/80/80 81/81/81 86/86/86
f 80/80/80 86/86/86 87/87/87
f 86/86/86 88/88/88 87/87/87
f 86/86/86 18/18/18 88/88/88
f 80/80/80 87/87/87 89/89/89
f 89/89/89 14/14/14 84/84/84
f 87/87/87 88/88/88 14/14/14
f 89/89/89 87/87/87 14/14/14
f 14/14/14 88/88/88 9/9/9
f 86/86/86 21/21/21 18/18/18
f 82/82/82 21/21/21 81/81/81
f 81/81/81 21/21/21 86/86/86
f 88/88/88 17/17/17 9/9/9
f 88/88/88 18/18/18 17/17/17
f 84/84/84 14/14/14 13/13/13
f 5/5/5 84/84/84 4/4/4
f 84/84/84 13/13/13 4/4/4
f 78/78/78 89/89/89 84/84/84
f 78/78/78 80/80/80 89/89/89
f 82/82/82 22/22/22 21/21/21
f 32/32/32 22/22/22 82/82/82
f 91/91/91 90/90/90 92/92/92
f 92/92/92 90/90/90 93/93/93
f 90/90/90 42/42/42 93/93/93
f 91/91/91 92/92/92 94/94/94
f 95/95/95 91/91/91 94/94/94
f 95/95/95 94/94/94 96/96/96
f 97/97/97 91/91/91 95/95/95
f 11/11/11 97/97/97 95/95/95
f 98/98/98 97/97/97 11/11/11
f 99/99/99 97/97/97 98/98/98
f 99/99/99 100/100/100 97/97/97
f 100/100/100 91/91/91 97/97/97
f 100/100/100 90/90/90 91/91/91
f 99/99/99 101/101/101 100/100/100
f 101/101/101 102/102/102 100/100/100
f 102/102/102 90/90/90 100/100/100
f 102/102/102 42/42/42 90/90/90
f 101/101/101 103/103/103 102/102/102
f 103/103/103 42/42/42 102/102/102
f 44/44/44 103/103/103 101/101/101
f 44/44/44 101/101/101 99/99/99
f 103/103/103 104/104/104 42/42/42
f 26/26/26 44/44/44 99/99/99
f 26/26/26 99/99/99 98/98/98
f 25/25/25 44/44/44 26/26/26
f 25/25/25 28/28/28 44/44/44
f 11/11/11 95/95/95 12/12/12
f 12/12/12 95/95/95 105/105/105
f 15/15/15 98/98/98 11/11/11
f 12/12/12 105/105/105 106/106/106
f 12/12/12 106/106/106 107/107/107
f 107/107/107 106/106/106 6/6/6
f 8/8/8 12/12/12 107/107/107
f 44/44/44 43/43/43 103/103/103
f 103/103/103 43/43/43 104/104/104
f 43/43/43 33/33/33 104/104/104
f 104/104/104 33/33/33 40/40/40
f 42/42/42 104/104/104 40/40/40
f 8/8/8 107/107/107 7/7/7
f 7/7/7 107/107/107 6/6/6
f 42/42/42 108/108/108 109/109/109
f 109/109/109 108/108/108 110/110/110
f 109/109/109 110/110/110 56/56/56
f 111/111/111 109/109/109 56/56/56
f 111/111/111 56/56/56 112/112/112
f 112/112/112 56/56/56 113/113/113
f 94/94/94 111/111/111 112/112/112
f 114/114/114 94/94/94 112/112/112
f 114/114/114 112/112/112 115/115/115
f 112/112/112 116/116/116 115/115/115
f 112/112/112 113/113/113 116/116/116
f 115/115/115 116/116/116 117/117/117
f 117/117/117 116/116/116 118/118/118
f 118/118/118 65/65/65 117/117/117
f 117/117/117 65/65/65 119/119/119
f 116/116/116 55/55/55 118/118/118
f 56/56/56 55/55/55 113/113/113
f 113/113/113 55/55/55 116/116/116
f 120/120/120 117/117/117 119/119/119
f 121/121/121 120/120/120 119/119/119
f 122/122/122 121/121/121 119/119/119
f 119/119/119 123/123/123 122/122/122
f 124/124/124 122/122/122 123/123/123
f 119/119/119 125/125/125 123/123/123
f 119/119/119 65/65/65 125/125/125
f 121/121/121 126/126/126 120/120/120
f 126/126/126 127/127/127 120/120/120
f 127/127/127 117/117/117 120/120/120
f 127/127/127 115/115/115 117/117/117
f 114/114/114 115/115/115 127/127/127
f 126/126/126 128/128/128 127/127/127
f 125/125/125 129/129/129 123/123/123
f 129/129/129 124/124/124 123/123/123
f 130/130/130 129/129/129 125/125/125
f 129/129/129 131/131/131 124/124/124
f 130/130/130 131/131/131 129/129/129
f 130/130/130 79/79/79 131/131/131
f 79/79/79 132/132/132 131/131/131
f 131/131/131 133/133/133 124/124/124
f 132/132/132 133/133/133 131/131/131
f 63/63/63 130/130/130 125/125/125
f 63/63/63 79/79/79 130/130/130
f 128/128/128 114/114/114 127/127/127
f 79/79/79 69/69/69 132/132/132
f 128/128/128 96/96/96 114/114/114
f 96/96/96 94/94/94 114/114/114
f 65/65/65 63/63/63 125/125/125
f 94/94/94 92/92/92 111/111/111
f 92/92/92 93/93/93 111/111/111
f 93/93/93 109/109/109 111/111/111
f 42/42/42 109/109/109 93/93/93
f 42/42/42 41/41/41 108/108/108
f 108/108/108 41/41/41 49/49/49
f 108/108/108 49/49/49 51/51/51
f 110/110/110 108/108/108 51/51/51
f 110/110/110 51/51/51 56/56/56
f 118/118/118 64/64/64 65/65/65
f 55/55/55 64/64/64 118/118/118
f 46/46/46 71/71/71 58/58/58
f 36/36/36 71/71/71 46/46/46
f 71/71/71 36/36/36 34/34/34
f 71/71/71 34/34/34 72/72/72
f 72/72/72 34/34/34 35/35/35
f 27/27/27 98/98/98 15/15/15
f 27/27/27 26/26/26 98/98/98
